<svg xmlns="http://www.w3.org/2000/svg" viewBox="0 0 652.46 652.46"><defs><style>.cls-1{fill:#ffd73b;}</style></defs><title>email</title><g id="Layer_2" data-name="Layer 2"><g id="Layer_1-2" data-name="Layer 1"><path class="cls-1" d="M326.23,0C146.06,0,0,146.06,0,326.23S146.06,652.46,326.23,652.46,652.46,506.4,652.46,326.23,506.4,0,326.23,0Zm-194,218.29L263.77,326.17,132.24,434.05Zm0,234.33L275,335.54,315.9,369.1a16.3,16.3,0,0,0,20.66,0l40.91-33.56L520.22,452.62Zm388-18.57L388.69,326.17,520.22,218.29ZM336.56,350.47a16.3,16.3,0,0,1-20.66,0L132.24,199.84h388Z"/></g></g></svg>