<svg xmlns="http://www.w3.org/2000/svg" viewBox="0 0 678 678"><defs><style>.cls-1{fill:#e60019;}</style></defs><title>pinterest</title><g id="Layer_2" data-name="Layer 2"><g id="Layer_1-2" data-name="Layer 1"><path class="cls-1" d="M339,0C151.78,0,0,151.78,0,339S151.78,678,339,678,678,526.22,678,339,526.22,0,339,0Zm31.68,491.67c-27.06,0-52.58-14.08-61.16-30.8L292.8,524.45c-5.89,23.12-21.93,51.84-32.92,69.7q-9.21-2.85-18.12-6.35c-2.41-21.12-4.39-53.67.89-76.77,4.83-20.9,31.23-132.87,31.23-132.87S266,362.1,266,338.56c0-37.18,21.56-64.9,48.4-64.9,22.88,0,33.88,17.16,33.88,37.62,0,22.88-14.52,57.2-22.22,89.1-6.38,26.61,13.42,48.39,39.6,48.39,47.52,0,84-50.15,84-122.31,0-64-46-108.67-111.75-108.67-76.12,0-120.77,57-120.77,115.93,0,22.88,8.8,47.52,19.8,60.94a8,8,0,0,1,1.76,7.7c-2,8.36-6.6,26.61-7.48,30.35-1.1,4.84-4,5.94-9,3.52-33.44-15.61-54.34-64.23-54.34-103.61,0-84.25,61.16-161.69,176.65-161.69,92.61,0,164.77,66,164.77,154.43C509.27,417.54,451.19,491.67,370.68,491.67Z"/></g></g></svg>