<svg xmlns="http://www.w3.org/2000/svg" viewBox="0 0 783.45 783.45"><defs><style>.cls-1{fill:#1da1f2;}</style></defs><title>twitter</title><g id="Layer_2" data-name="Layer 2"><g id="Layer_1-2" data-name="Layer 1"><path class="cls-1" d="M391.72,0C175.38,0,0,175.38,0,391.73S175.38,783.45,391.72,783.45,783.45,608.07,783.45,391.73,608.07,0,391.72,0ZM546.16,312.53c.16,3.42.22,6.85.22,10.3,0,105.29-80.14,226.71-226.7,226.71a225.57,225.57,0,0,1-122.14-35.79,163.52,163.52,0,0,0,19,1.1,159.9,159.9,0,0,0,99-34.1,79.78,79.78,0,0,1-74.44-55.35,79.52,79.52,0,0,0,36-1.36,79.71,79.71,0,0,1-63.91-78.12c0-.35,0-.68,0-1a79.13,79.13,0,0,0,36.09,10,79.74,79.74,0,0,1-24.67-106.37,226.23,226.23,0,0,0,164.24,83.24,79.72,79.72,0,0,1,135.78-72.66,160,160,0,0,0,50.6-19.34,80,80,0,0,1-35,44.07,158.89,158.89,0,0,0,45.76-12.54A162.23,162.23,0,0,1,546.16,312.53Z"/></g></g></svg>