<svg xmlns="http://www.w3.org/2000/svg" viewBox="0 0 708.26 708.27"><defs><style>.cls-1{fill:#655cac;}</style></defs><title>viber</title><g id="Layer_2" data-name="Layer 2"><g id="Layer_1-2" data-name="Layer 1"><path class="cls-1" d="M354.12,0C158.55,0,0,158.56,0,354.13S158.55,708.27,354.12,708.27,708.26,549.72,708.26,354.13,549.71,0,354.12,0ZM561.49,407.07c-13.27,108.59-95.13,119.11-109.59,123.8-6.23,2-61.37,15.81-133,9.78-7.9,9.18-18.43,21.24-26,29.41-13.87,14.94-22.38,28.73-36.85,24.25-12-3.69-11.32-21.91-11.32-21.91l.06-44.95h-.06C140,498,141.53,389.39,142.74,331.38s12.39-104.78,44.34-136.73C244.5,142,362.26,149.09,362.26,149.09c99.82.48,144.63,33,155.75,43.21C554.85,224.26,575.22,295.13,561.49,407.07Z"/><path class="cls-1" d="M494.77,214.94c-9.38-8.5-49.85-33.89-134.32-34.29,0,0-100-6.56-148.58,37.38-27,26.66-36.11,66.32-37.11,114.75s-6.17,141,82.39,165.53c0,0-.33,68.66-.4,74.69,0,4.23.67,7.1,3.08,7.71,1.75.47,4.35-.47,6.57-2.68,14.13-14.27,59.48-68.93,59.48-68.93,60.83,4,109.2-8,114.42-9.72,12.19-3.88,78.58-9.64,89.83-100.35C541.79,305.52,525.92,241.68,494.77,214.94Zm-37,220.67a.29.29,0,0,1-.07.14,87.05,87.05,0,0,1-17.35,21.37l-.14.13c-6,4.95-11.86,7.84-17.61,8.5a9.53,9.53,0,0,1-2.55.14,24.15,24.15,0,0,1-7.51-1.14l-.2-.27c-8.91-2.48-23.71-8.77-48.43-22.38a284.59,284.59,0,0,1-40.66-26.86A212.54,212.54,0,0,1,305,399l-1.21-1.2-.6-.61-.61-.6a216,216,0,0,1-16.21-18.28,289.93,289.93,0,0,1-26.86-40.67c-13.6-24.72-19.9-39.52-22.38-48.43l-.26-.2a22.24,22.24,0,0,1-1.15-7.5,10,10,0,0,1,.14-2.56c.67-5.75,3.55-11.65,8.51-17.61a.58.58,0,0,1,.14-.13,85.16,85.16,0,0,1,21.36-17.35.24.24,0,0,0,.14-.07c8-4.16,15.67-2.75,20.83,3.42.07.06,10.78,12.93,15.4,19.22a241.33,241.33,0,0,1,13.2,20.7c5.29,9.52,2,19.22-3.22,23.25l-10.44,8.31c-5.29,4.28-4.62,12.18-4.62,12.18s15.54,58.76,73.55,73.56c0,0,8,.67,12.2-4.62l8.29-10.45c4-5.22,13.75-8.51,23.25-3.22,5.3,3,14.81,8.85,20.7,13.2,6.3,4.62,19.23,15.41,19.23,15.41C460.53,419.94,461.94,427.57,457.79,435.61ZM369.56,293.92c21.44,1.15,32.69,12.74,33.76,34.91Zm60.55,23a82.19,82.19,0,0,1,2.22,21.64L361,263.65a98.42,98.42,0,0,1,21.9,3.94l-31.82-33.21q47.13.3,78.85,31.21T462,350.2Z"/></g></g></svg>